<?xml version="1.0" standalone="no"?><!DOCTYPE svg PUBLIC "-//W3C//DTD SVG 1.1//EN" "http://www.w3.org/Graphics/SVG/1.1/DTD/svg11.dtd"><svg t="1573353128485" class="icon" viewBox="0 0 1024 1024" version="1.1" xmlns="http://www.w3.org/2000/svg" p-id="1166" xmlns:xlink="http://www.w3.org/1999/xlink" width="200" height="200"><defs><style type="text/css"></style></defs><path d="M179.555728 11.642017C94.280439 11.642017 25.124866 80.79759 25.124866 166.072879v84.777767h308.861724v-84.777767C333.98659 80.79759 264.831017 11.642017 179.555728 11.642017z" fill="#F76B8A" p-id="1167"></path><path d="M341.946944 258.811H17.164513v-92.738121C17.164513 76.5189 90.001749 3.681664 179.555728 3.681664s162.391216 72.837236 162.391216 162.391215v92.738121z m-308.861724-15.920708h292.941017v-76.817413C326.026237 85.275289 260.353318 19.602371 179.555728 19.602371 98.758138 19.602371 33.08522 85.275289 33.08522 166.072879v76.817413z" fill="" p-id="1168"></path><path d="M25.025362 314.433971v542.199592L179.555728 1012.656496l154.430862-155.226897V314.433971H179.555728z" fill="#F76B8A" p-id="1169"></path><path d="M179.555728 1024L17.065008 859.917209V306.473618h324.881936v554.239627l-162.391216 163.286755zM32.985716 853.349917l146.570012 147.963075 146.470509-147.167039V322.394325H32.985716v530.955592z" fill="" p-id="1170"></path><path d="M179.555728 827.876786v-513.442815h154.430862v513.442815H25.025362h154.530366" fill="#66BFBF" p-id="1171"></path><path d="M341.946944 835.837139H25.025362v-15.920707h146.570013v-513.442814h170.351569v529.363521z m-154.430862-15.920707h138.510155v-497.522107H187.516082v497.522107z" fill="" p-id="1172"></path><path d="M98.459625 930.764357h162.391216l-81.295113 81.892139z" fill="#66BFBF" p-id="1173"></path><path d="M179.555728 1024L79.354776 922.804003h200.600913l-100.399961 101.195997z m-61.991254-85.275289l61.991254 62.588281 62.190264-62.588281H117.564474z" fill="" p-id="1174"></path><path d="M17.065008 242.890292h15.920708v79.504033h-15.920708z" fill="" p-id="1175"></path><path d="M326.026237 242.890292h15.920707v79.504033h-15.920707z" fill="" p-id="1176"></path><path d="M437.073171 29.453309v965.391896h561.901467L437.073171 29.453309z m138.311145 599.912156L705.038577 852.155864H575.384316V629.365465z" fill="#66BFBF" p-id="1177"></path><path d="M1012.805753 1002.805558H429.112817V0l583.692936 1002.805558z m-567.772229-15.920707h540.109999L445.033524 58.906617v927.978234z m273.836168-126.768633H567.423963V599.812652l151.445729 260.303566z m-135.525022-15.920707h107.862793L583.34467 658.918278v185.277233z" fill="" p-id="1178"></path><path d="M437.073171 314.732485h52.637839v15.920707h-52.637839zM437.073171 441.1031h69.852104v15.920707h-69.852104zM437.073171 567.573219h52.637839v15.920708h-52.637839zM437.073171 693.943834h69.852104v15.920708h-69.852104zM437.073171 852.852395h69.852104v15.920708h-69.852104z" fill="" p-id="1179"></path><path d="M520.059858 930.167331v64.677874h257.815956v-83.48421" fill="#66BFBF" p-id="1180"></path><path d="M785.836168 1002.805558H512.099504v-72.638227h15.920708v56.71752h241.895248v-75.523856h15.920708z" fill="" p-id="1181"></path><path d="M640.95773 931.759401h15.920707v63.085804h-15.920707z" fill="" p-id="1182"></path></svg>